<svg xmlns="http://www.w3.org/2000/svg" width="64" height="64" viewBox="0 0 64 64" shape-rendering="crispEdges">
  <rect width="64" height="64" fill="transparent"/>
  <defs>
    <g id="player-down-base">
      <rect x="6" y="1" width="4" height="1" fill="#1f5d63"/>
      <rect x="5" y="2" width="6" height="2" fill="#2f8f95"/>
      <rect x="4" y="4" width="8" height="1" fill="#1f5d63"/>
      <rect x="4" y="5" width="2" height="4" fill="#1f5d63"/>
      <rect x="10" y="5" width="2" height="4" fill="#1f5d63"/>
      <rect x="6" y="5" width="4" height="2" fill="#e0b48d"/>
      <rect x="6" y="6" width="1" height="1" fill="#2f2a2c"/>
      <rect x="9" y="6" width="1" height="1" fill="#2f2a2c"/>
      <rect x="5" y="8" width="6" height="1" fill="#59b7bf"/>
      <rect x="4" y="9" width="8" height="3" fill="#3ea2aa"/>
      <rect x="5" y="9" width="1" height="2" fill="#88d3d8"/>
      <rect x="6" y="12" width="1" height="1" fill="#e0b48d"/>
      <rect x="9" y="12" width="1" height="1" fill="#e0b48d"/>
      <rect x="5" y="12" width="2" height="2" fill="#3b4256"/>
      <rect x="9" y="12" width="2" height="2" fill="#3b4256"/>
      <rect x="5" y="14" width="2" height="1" fill="#202438"/>
      <rect x="9" y="14" width="2" height="1" fill="#202438"/>
    </g>
    <g id="player-left-base">
      <rect x="5" y="1" width="4" height="1" fill="#1f5d63"/>
      <rect x="4" y="2" width="6" height="2" fill="#2f8f95"/>
      <rect x="3" y="4" width="8" height="1" fill="#1f5d63"/>
      <rect x="3" y="5" width="2" height="4" fill="#1f5d63"/>
      <rect x="9" y="5" width="2" height="4" fill="#1f5d63"/>
      <rect x="5" y="5" width="3" height="2" fill="#e0b48d"/>
      <rect x="5" y="6" width="1" height="1" fill="#2f2a2c"/>
      <rect x="4" y="8" width="5" height="1" fill="#59b7bf"/>
      <rect x="3" y="9" width="7" height="3" fill="#3ea2aa"/>
      <rect x="9" y="9" width="1" height="2" fill="#1f5d63"/>
      <rect x="5" y="12" width="2" height="2" fill="#3b4256"/>
      <rect x="8" y="12" width="2" height="2" fill="#3b4256"/>
      <rect x="5" y="14" width="2" height="1" fill="#202438"/>
      <rect x="8" y="14" width="2" height="1" fill="#202438"/>
    </g>
    <g id="player-right-base">
      <rect x="7" y="1" width="4" height="1" fill="#1f5d63"/>
      <rect x="6" y="2" width="6" height="2" fill="#2f8f95"/>
      <rect x="5" y="4" width="8" height="1" fill="#1f5d63"/>
      <rect x="5" y="5" width="2" height="4" fill="#1f5d63"/>
      <rect x="11" y="5" width="2" height="4" fill="#1f5d63"/>
      <rect x="8" y="5" width="3" height="2" fill="#e0b48d"/>
      <rect x="10" y="6" width="1" height="1" fill="#2f2a2c"/>
      <rect x="7" y="8" width="5" height="1" fill="#59b7bf"/>
      <rect x="6" y="9" width="7" height="3" fill="#3ea2aa"/>
      <rect x="6" y="9" width="1" height="2" fill="#1f5d63"/>
      <rect x="7" y="12" width="2" height="2" fill="#3b4256"/>
      <rect x="10" y="12" width="2" height="2" fill="#3b4256"/>
      <rect x="7" y="14" width="2" height="1" fill="#202438"/>
      <rect x="10" y="14" width="2" height="1" fill="#202438"/>
    </g>
    <g id="player-up-base">
      <rect x="6" y="1" width="4" height="1" fill="#1f5d63"/>
      <rect x="5" y="2" width="6" height="2" fill="#2f8f95"/>
      <rect x="4" y="4" width="8" height="1" fill="#1f5d63"/>
      <rect x="4" y="5" width="2" height="4" fill="#1f5d63"/>
      <rect x="10" y="5" width="2" height="4" fill="#1f5d63"/>
      <rect x="6" y="5" width="4" height="2" fill="#26747a"/>
      <rect x="5" y="8" width="6" height="1" fill="#59b7bf"/>
      <rect x="4" y="9" width="8" height="3" fill="#3ea2aa"/>
      <rect x="6" y="9" width="4" height="2" fill="#2a6f74"/>
      <rect x="5" y="12" width="2" height="2" fill="#3b4256"/>
      <rect x="9" y="12" width="2" height="2" fill="#3b4256"/>
      <rect x="5" y="14" width="2" height="1" fill="#202438"/>
      <rect x="9" y="14" width="2" height="1" fill="#202438"/>
    </g>
  </defs>
  <g transform="translate(0 0)">
    <use href="#player-down-base"/>
  </g>
  <g transform="translate(16 0)">
    <use href="#player-down-base"/>
    <rect x="5" y="14" width="2" height="1" fill="#202438"/>
    <rect x="9" y="13" width="2" height="1" fill="#202438"/>
    <rect x="4" y="10" width="1" height="1" fill="#1f5d63"/>
  </g>
  <g transform="translate(32 0)">
    <use href="#player-down-base"/>
  </g>
  <g transform="translate(48 0)">
    <use href="#player-down-base"/>
    <rect x="5" y="13" width="2" height="1" fill="#202438"/>
    <rect x="9" y="14" width="2" height="1" fill="#202438"/>
    <rect x="11" y="10" width="1" height="1" fill="#1f5d63"/>
  </g>
  <g transform="translate(0 16)">
    <use href="#player-left-base"/>
  </g>
  <g transform="translate(16 16)">
    <use href="#player-left-base"/>
    <rect x="5" y="14" width="2" height="1" fill="#202438"/>
    <rect x="8" y="13" width="2" height="1" fill="#202438"/>
  </g>
  <g transform="translate(32 16)">
    <use href="#player-left-base"/>
  </g>
  <g transform="translate(48 16)">
    <use href="#player-left-base"/>
    <rect x="5" y="13" width="2" height="1" fill="#202438"/>
    <rect x="8" y="14" width="2" height="1" fill="#202438"/>
  </g>
  <g transform="translate(0 32)">
    <use href="#player-right-base"/>
  </g>
  <g transform="translate(16 32)">
    <use href="#player-right-base"/>
    <rect x="7" y="14" width="2" height="1" fill="#202438"/>
    <rect x="10" y="13" width="2" height="1" fill="#202438"/>
  </g>
  <g transform="translate(32 32)">
    <use href="#player-right-base"/>
  </g>
  <g transform="translate(48 32)">
    <use href="#player-right-base"/>
    <rect x="7" y="13" width="2" height="1" fill="#202438"/>
    <rect x="10" y="14" width="2" height="1" fill="#202438"/>
  </g>
  <g transform="translate(0 48)">
    <use href="#player-up-base"/>
  </g>
  <g transform="translate(16 48)">
    <use href="#player-up-base"/>
    <rect x="5" y="14" width="2" height="1" fill="#202438"/>
    <rect x="9" y="13" width="2" height="1" fill="#202438"/>
  </g>
  <g transform="translate(32 48)">
    <use href="#player-up-base"/>
  </g>
  <g transform="translate(48 48)">
    <use href="#player-up-base"/>
    <rect x="5" y="13" width="2" height="1" fill="#202438"/>
    <rect x="9" y="14" width="2" height="1" fill="#202438"/>
  </g>
</svg>
